<svg width="9" height="9" viewBox="0 0 9 9" fill="none" xmlns="http://www.w3.org/2000/svg">
<path d="M8.85345 8.66035C8.85345 8.77081 8.76391 8.86035 8.65345 8.86035H7.65404C7.54358 8.86035 7.45404 8.77081 7.45404 8.66035V3.07952C7.45404 2.90134 7.23861 2.81211 7.11262 2.9381L1.40503 8.64569C1.32693 8.72379 1.20029 8.72379 1.12219 8.64569L0.414798 7.9383C0.336693 7.86019 0.336693 7.73356 0.414798 7.65545L6.12238 1.94787C6.24838 1.82187 6.15914 1.60645 5.98096 1.60645H0.400134C0.289677 1.60645 0.200134 1.5169 0.200134 1.40645V0.406055C0.200134 0.295598 0.289677 0.206055 0.400134 0.206055H8.65345C8.76391 0.206055 8.85345 0.295598 8.85345 0.406055V8.66035Z" fill="white"/>
</svg>
