<svg width="20" height="20" viewBox="0 0 20 20" fill="none" xmlns="http://www.w3.org/2000/svg">
<path d="M16.9993 5.17135C14.5368 1.30847 9.50917 0.16004 5.61021 2.5613C1.81386 4.96255 0.582608 10.1827 3.04511 14.0456L3.25032 14.3588L2.42948 17.4908L5.50761 16.6556L5.81542 16.8644C7.14928 17.5952 8.58574 18.0128 10.0222 18.0128C11.5613 18.0128 13.1003 17.5952 14.4342 16.76C18.2305 14.2544 19.3592 9.13865 16.9993 5.17135ZM14.8446 13.2103C14.4342 13.8368 13.9212 14.2544 13.2029 14.3588C12.7925 14.3588 12.2795 14.5676 10.2274 13.7324C8.48313 12.8971 7.04667 11.5399 6.02063 9.97387C5.40501 9.24305 5.09719 8.30343 4.99459 7.36381C4.99459 6.52859 5.3024 5.79777 5.81542 5.27576C6.02063 5.06695 6.22584 4.96255 6.43105 4.96255H6.94407C7.14928 4.96255 7.35449 4.96255 7.45709 5.38016C7.6623 5.90217 8.17532 7.155 8.17532 7.2594C8.27792 7.36381 8.27792 7.57261 8.17532 7.67701C8.27792 7.88582 8.17532 8.09462 8.07272 8.19903C7.97011 8.30343 7.86751 8.51223 7.7649 8.61663C7.55969 8.72104 7.45709 8.92984 7.55969 9.13865C7.97011 9.76506 8.48313 10.3915 8.99615 10.9135C9.61178 11.4355 10.2274 11.8531 10.9456 12.1663C11.1508 12.2707 11.3561 12.2707 11.4587 12.0619C11.5613 11.8531 12.0743 11.3311 12.2795 11.1223C12.4847 10.9135 12.5873 10.9135 12.7925 11.0179L14.4342 11.8531C14.6394 11.9575 14.8446 12.0619 14.9472 12.1663C15.0498 12.4795 15.0498 12.8971 14.8446 13.2103Z" fill="white"/>
</svg>
