<svg width="24" height="24" viewBox="0 0 24 24" fill="none" xmlns="http://www.w3.org/2000/svg">
<g clip-path="url(#clip0_5005_2308)">
<path d="M24 12C24 5.37231 18.6277 0 12 0C5.37231 0 0 5.37231 0 12C0 18.6277 5.37231 24 12 24C18.6277 24 24 18.6277 24 12Z" fill="#F8604A"/>
<path d="M16.2 19.2201H13.7797V6.71981H12.5603C10.4797 6.71981 9.4403 7.76011 9.4403 9.32011C9.4403 11.0601 10.14 11.9195 11.7 12.9598L12.9203 13.8201L9.45968 19.1998H6.6803L9.9803 14.3398C8.07968 12.9598 7.0403 11.7395 7.0403 9.47981C7.0403 6.6995 8.93999 4.7998 12.6 4.7998H16.2V19.2201Z" fill="white"/>
</g>
<defs>
<clipPath id="clip0_5005_2308">
<rect width="24" height="24" fill="white"/>
</clipPath>
</defs>
</svg>
